<?xml version="1.0" encoding="UTF-8" ?>
<svg version="1.1" width="64" height="64" xmlns="http://www.w3.org/2000/svg" shape-rendering="crispEdges">
<rect x="30" y="8" width="1" height="1" fill="#9A5E42" />
<rect x="31" y="8" width="1" height="1" fill="#9A5E42" />
<rect x="32" y="8" width="1" height="1" fill="#9A5E42" />
<rect x="33" y="8" width="1" height="1" fill="#8F563B" />
<rect x="29" y="9" width="1" height="1" fill="#9A5E42" />
<rect x="30" y="9" width="1" height="1" fill="#9A5E42" />
<rect x="31" y="9" width="1" height="1" fill="#8F563B" />
<rect x="32" y="9" width="1" height="1" fill="#8F563B" />
<rect x="33" y="9" width="1" height="1" fill="#8F563B" />
<rect x="34" y="9" width="1" height="1" fill="#8F563B" />
<rect x="36" y="9" width="1" height="1" fill="#F6EB00" />
<rect x="28" y="10" width="1" height="1" fill="#9A5E42" />
<rect x="29" y="10" width="1" height="1" fill="#9A5E42" />
<rect x="30" y="10" width="1" height="1" fill="#8F563B" />
<rect x="31" y="10" width="1" height="1" fill="#8F563B" />
<rect x="32" y="10" width="1" height="1" fill="#8F563B" />
<rect x="33" y="10" width="1" height="1" fill="#8F563B" />
<rect x="34" y="10" width="1" height="1" fill="#8F563B" />
<rect x="35" y="10" width="1" height="1" fill="#F6EB00" />
<rect x="28" y="11" width="1" height="1" fill="#9A5E42" />
<rect x="29" y="11" width="1" height="1" fill="#8F563B" />
<rect x="30" y="11" width="1" height="1" fill="#8F563B" />
<rect x="31" y="11" width="1" height="1" fill="#8F563B" />
<rect x="32" y="11" width="1" height="1" fill="#8F563B" />
<rect x="33" y="11" width="1" height="1" fill="#8F563B" />
<rect x="34" y="11" width="1" height="1" fill="#F6EB00" />
<rect x="35" y="11" width="1" height="1" fill="#8F563B" />
<rect x="27" y="12" width="1" height="1" fill="#4F2D26" />
<rect x="28" y="12" width="1" height="1" fill="#4F2D26" />
<rect x="29" y="12" width="1" height="1" fill="#4F2D26" />
<rect x="30" y="12" width="1" height="1" fill="#4F2D26" />
<rect x="31" y="12" width="1" height="1" fill="#4F2D26" />
<rect x="32" y="12" width="1" height="1" fill="#4F2D26" />
<rect x="33" y="12" width="1" height="1" fill="#4F2D26" />
<rect x="34" y="12" width="1" height="1" fill="#4F2D26" />
<rect x="35" y="12" width="1" height="1" fill="#4F2D26" />
<rect x="36" y="12" width="1" height="1" fill="#4F2D26" />
<rect x="26" y="13" width="1" height="1" fill="#4F2D26" />
<rect x="27" y="13" width="1" height="1" fill="#4F2D26" />
<rect x="28" y="13" width="1" height="1" fill="#58322B" />
<rect x="29" y="13" width="1" height="1" fill="#58322B" />
<rect x="30" y="13" width="1" height="1" fill="#58322B" />
<rect x="31" y="13" width="1" height="1" fill="#58322B" />
<rect x="32" y="13" width="1" height="1" fill="#58322B" />
<rect x="33" y="13" width="1" height="1" fill="#58322B" />
<rect x="34" y="13" width="1" height="1" fill="#58322B" />
<rect x="35" y="13" width="1" height="1" fill="#58322B" />
<rect x="36" y="13" width="1" height="1" fill="#4F2D26" />
<rect x="37" y="13" width="1" height="1" fill="#4F2D26" />
<rect x="25" y="14" width="1" height="1" fill="#4F2D26" />
<rect x="26" y="14" width="1" height="1" fill="#4F2D26" />
<rect x="27" y="14" width="1" height="1" fill="#58322B" />
<rect x="28" y="14" width="1" height="1" fill="#663931" />
<rect x="29" y="14" width="1" height="1" fill="#663931" />
<rect x="30" y="14" width="1" height="1" fill="#663931" />
<rect x="31" y="14" width="1" height="1" fill="#663931" />
<rect x="32" y="14" width="1" height="1" fill="#663931" />
<rect x="33" y="14" width="1" height="1" fill="#663931" />
<rect x="34" y="14" width="1" height="1" fill="#663931" />
<rect x="35" y="14" width="1" height="1" fill="#663931" />
<rect x="36" y="14" width="1" height="1" fill="#58322B" />
<rect x="37" y="14" width="1" height="1" fill="#58322B" />
<rect x="38" y="14" width="1" height="1" fill="#4F2D26" />
<rect x="25" y="15" width="1" height="1" fill="#58322B" />
<rect x="26" y="15" width="1" height="1" fill="#58322B" />
<rect x="27" y="15" width="1" height="1" fill="#F6EB00" />
<rect x="28" y="15" width="1" height="1" fill="#E5A768" />
<rect x="29" y="15" width="1" height="1" fill="#F6EB00" />
<rect x="30" y="15" width="1" height="1" fill="#F6EB00" />
<rect x="31" y="15" width="1" height="1" fill="#D9A066" />
<rect x="32" y="15" width="1" height="1" fill="#F6EB00" />
<rect x="33" y="15" width="1" height="1" fill="#D9A066" />
<rect x="34" y="15" width="1" height="1" fill="#F6EB00" />
<rect x="35" y="15" width="1" height="1" fill="#D9A066" />
<rect x="36" y="15" width="1" height="1" fill="#663931" />
<rect x="37" y="15" width="1" height="1" fill="#663931" />
<rect x="38" y="15" width="1" height="1" fill="#58322B" />
<rect x="26" y="16" width="1" height="1" fill="#F6EB00" />
<rect x="27" y="16" width="1" height="1" fill="#58322B" />
<rect x="28" y="16" width="1" height="1" fill="#D9A066" />
<rect x="29" y="16" width="1" height="1" fill="#D9A066" />
<rect x="30" y="16" width="1" height="1" fill="#D9A066" />
<rect x="31" y="16" width="1" height="1" fill="#D9A066" />
<rect x="32" y="16" width="1" height="1" fill="#F6EB00" />
<rect x="33" y="16" width="1" height="1" fill="#D9A066" />
<rect x="34" y="16" width="1" height="1" fill="#CF975E" />
<rect x="35" y="16" width="1" height="1" fill="#D9A066" />
<rect x="36" y="16" width="1" height="1" fill="#58322B" />
<rect x="37" y="16" width="1" height="1" fill="#58322B" />
<rect x="28" y="17" width="1" height="1" fill="#CF975E" />
<rect x="29" y="17" width="1" height="1" fill="#D9A066" />
<rect x="30" y="17" width="1" height="1" fill="#000000" />
<rect x="31" y="17" width="1" height="1" fill="#CF975E" />
<rect x="32" y="17" width="1" height="1" fill="#D9A066" />
<rect x="33" y="17" width="1" height="1" fill="#000000" />
<rect x="34" y="17" width="1" height="1" fill="#D9A066" />
<rect x="35" y="17" width="1" height="1" fill="#D9A066" />
<rect x="37" y="17" width="1" height="1" fill="#F6EB00" />
<rect x="28" y="18" width="1" height="1" fill="#D9A066" />
<rect x="29" y="18" width="1" height="1" fill="#D9A066" />
<rect x="30" y="18" width="1" height="1" fill="#000000" />
<rect x="31" y="18" width="1" height="1" fill="#D9A066" />
<rect x="32" y="18" width="1" height="1" fill="#D9A066" />
<rect x="33" y="18" width="1" height="1" fill="#000000" />
<rect x="34" y="18" width="1" height="1" fill="#D9A066" />
<rect x="35" y="18" width="1" height="1" fill="#CF975E" />
<rect x="28" y="19" width="1" height="1" fill="#D9A066" />
<rect x="29" y="19" width="1" height="1" fill="#D9A066" />
<rect x="30" y="19" width="1" height="1" fill="#D9A066" />
<rect x="31" y="19" width="1" height="1" fill="#D9A066" />
<rect x="32" y="19" width="1" height="1" fill="#CF975E" />
<rect x="33" y="19" width="1" height="1" fill="#D9A066" />
<rect x="34" y="19" width="1" height="1" fill="#D9A066" />
<rect x="35" y="19" width="1" height="1" fill="#D9A066" />
<rect x="28" y="20" width="1" height="1" fill="#D9A066" />
<rect x="29" y="20" width="1" height="1" fill="#CF975E" />
<rect x="30" y="20" width="1" height="1" fill="#D9A066" />
<rect x="31" y="20" width="1" height="1" fill="#D9A066" />
<rect x="32" y="20" width="1" height="1" fill="#D9A066" />
<rect x="33" y="20" width="1" height="1" fill="#D9A066" />
<rect x="34" y="20" width="1" height="1" fill="#D9A066" />
<rect x="35" y="20" width="1" height="1" fill="#CF975E" />
<rect x="29" y="21" width="1" height="1" fill="#D9A066" />
<rect x="30" y="21" width="1" height="1" fill="#D9A066" />
<rect x="31" y="21" width="1" height="1" fill="#CF975E" />
<rect x="32" y="21" width="1" height="1" fill="#D9A066" />
<rect x="33" y="21" width="1" height="1" fill="#D9A066" />
<rect x="34" y="21" width="1" height="1" fill="#CF975E" />
<rect x="30" y="22" width="1" height="1" fill="#CF975E" />
<rect x="31" y="22" width="1" height="1" fill="#CF975E" />
<rect x="32" y="22" width="1" height="1" fill="#CF975E" />
<rect x="33" y="22" width="1" height="1" fill="#CF975E" />
<rect x="24" y="23" width="1" height="1" fill="#B93434" />
<rect x="25" y="23" width="1" height="1" fill="#B93434" />
<rect x="26" y="23" width="1" height="1" fill="#B93434" />
<rect x="27" y="23" width="1" height="1" fill="#464677" />
<rect x="28" y="23" width="1" height="1" fill="#464677" />
<rect x="29" y="23" width="1" height="1" fill="#B93434" />
<rect x="30" y="23" width="1" height="1" fill="#B93434" />
<rect x="31" y="23" width="1" height="1" fill="#37423F" />
<rect x="32" y="23" width="1" height="1" fill="#37423F" />
<rect x="33" y="23" width="1" height="1" fill="#B93434" />
<rect x="34" y="23" width="1" height="1" fill="#B93434" />
<rect x="35" y="23" width="1" height="1" fill="#464677" />
<rect x="36" y="23" width="1" height="1" fill="#464677" />
<rect x="37" y="23" width="1" height="1" fill="#B93434" />
<rect x="38" y="23" width="1" height="1" fill="#B93434" />
<rect x="39" y="23" width="1" height="1" fill="#B93434" />
<rect x="23" y="24" width="1" height="1" fill="#B93434" />
<rect x="24" y="24" width="1" height="1" fill="#AC3232" />
<rect x="25" y="24" width="1" height="1" fill="#AC3232" />
<rect x="26" y="24" width="1" height="1" fill="#262C2A" />
<rect x="27" y="24" width="1" height="1" fill="#464677" />
<rect x="28" y="24" width="1" height="1" fill="#3F3F74" />
<rect x="29" y="24" width="1" height="1" fill="#AC3232" />
<rect x="30" y="24" width="1" height="1" fill="#AC3232" />
<rect x="31" y="24" width="1" height="1" fill="#323C39" />
<rect x="32" y="24" width="1" height="1" fill="#323C39" />
<rect x="33" y="24" width="1" height="1" fill="#AC3232" />
<rect x="34" y="24" width="1" height="1" fill="#AC3232" />
<rect x="35" y="24" width="1" height="1" fill="#3F3F74" />
<rect x="36" y="24" width="1" height="1" fill="#464677" />
<rect x="37" y="24" width="1" height="1" fill="#262C2A" />
<rect x="38" y="24" width="1" height="1" fill="#AC3232" />
<rect x="39" y="24" width="1" height="1" fill="#AC3232" />
<rect x="40" y="24" width="1" height="1" fill="#B93434" />
<rect x="23" y="25" width="1" height="1" fill="#AC3232" />
<rect x="24" y="25" width="1" height="1" fill="#AC3232" />
<rect x="25" y="25" width="1" height="1" fill="#262C2A" />
<rect x="26" y="25" width="1" height="1" fill="#AC3232" />
<rect x="27" y="25" width="1" height="1" fill="#464677" />
<rect x="28" y="25" width="1" height="1" fill="#3F3F74" />
<rect x="29" y="25" width="1" height="1" fill="#AC3232" />
<rect x="30" y="25" width="1" height="1" fill="#AC3232" />
<rect x="31" y="25" width="1" height="1" fill="#952E2E" />
<rect x="32" y="25" width="1" height="1" fill="#952E2E" />
<rect x="33" y="25" width="1" height="1" fill="#AC3232" />
<rect x="34" y="25" width="1" height="1" fill="#AC3232" />
<rect x="35" y="25" width="1" height="1" fill="#3F3F74" />
<rect x="36" y="25" width="1" height="1" fill="#464677" />
<rect x="37" y="25" width="1" height="1" fill="#AC3232" />
<rect x="38" y="25" width="1" height="1" fill="#262C2A" />
<rect x="39" y="25" width="1" height="1" fill="#AC3232" />
<rect x="40" y="25" width="1" height="1" fill="#AC3232" />
<rect x="23" y="26" width="1" height="1" fill="#AC3232" />
<rect x="24" y="26" width="1" height="1" fill="#323C39" />
<rect x="25" y="26" width="1" height="1" fill="#AC3232" />
<rect x="27" y="26" width="1" height="1" fill="#3F3F74" />
<rect x="28" y="26" width="1" height="1" fill="#3F3F74" />
<rect x="29" y="26" width="1" height="1" fill="#AC3232" />
<rect x="30" y="26" width="1" height="1" fill="#AC3232" />
<rect x="31" y="26" width="1" height="1" fill="#323C39" />
<rect x="32" y="26" width="1" height="1" fill="#323C39" />
<rect x="33" y="26" width="1" height="1" fill="#AC3232" />
<rect x="34" y="26" width="1" height="1" fill="#AC3232" />
<rect x="35" y="26" width="1" height="1" fill="#3F3F74" />
<rect x="36" y="26" width="1" height="1" fill="#3F3F74" />
<rect x="38" y="26" width="1" height="1" fill="#AC3232" />
<rect x="39" y="26" width="1" height="1" fill="#323C39" />
<rect x="40" y="26" width="1" height="1" fill="#AC3232" />
<rect x="23" y="27" width="1" height="1" fill="#AC3232" />
<rect x="24" y="27" width="1" height="1" fill="#37423F" />
<rect x="25" y="27" width="1" height="1" fill="#AC3232" />
<rect x="27" y="27" width="1" height="1" fill="#3C3C6E" />
<rect x="28" y="27" width="1" height="1" fill="#3C3C6E" />
<rect x="29" y="27" width="1" height="1" fill="#AC3232" />
<rect x="30" y="27" width="1" height="1" fill="#AC3232" />
<rect x="31" y="27" width="1" height="1" fill="#262C2A" />
<rect x="32" y="27" width="1" height="1" fill="#262C2A" />
<rect x="33" y="27" width="1" height="1" fill="#AC3232" />
<rect x="34" y="27" width="1" height="1" fill="#AC3232" />
<rect x="35" y="27" width="1" height="1" fill="#3C3C6E" />
<rect x="36" y="27" width="1" height="1" fill="#3C3C6E" />
<rect x="38" y="27" width="1" height="1" fill="#AC3232" />
<rect x="39" y="27" width="1" height="1" fill="#37423F" />
<rect x="40" y="27" width="1" height="1" fill="#AC3232" />
<rect x="23" y="28" width="1" height="1" fill="#37423F" />
<rect x="24" y="28" width="1" height="1" fill="#AC3232" />
<rect x="25" y="28" width="1" height="1" fill="#AC3232" />
<rect x="26" y="28" width="1" height="1" fill="#3C3C6E" />
<rect x="27" y="28" width="1" height="1" fill="#D7B18B" />
<rect x="28" y="28" width="1" height="1" fill="#D7B18B" />
<rect x="29" y="28" width="1" height="1" fill="#3C3C6E" />
<rect x="30" y="28" width="1" height="1" fill="#3C3C6E" />
<rect x="31" y="28" width="1" height="1" fill="#3C3C6E" />
<rect x="32" y="28" width="1" height="1" fill="#3C3C6E" />
<rect x="33" y="28" width="1" height="1" fill="#3C3C6E" />
<rect x="34" y="28" width="1" height="1" fill="#3C3C6E" />
<rect x="35" y="28" width="1" height="1" fill="#D7B18B" />
<rect x="36" y="28" width="1" height="1" fill="#D7B18B" />
<rect x="37" y="28" width="1" height="1" fill="#3C3C6E" />
<rect x="38" y="28" width="1" height="1" fill="#AC3232" />
<rect x="39" y="28" width="1" height="1" fill="#AC3232" />
<rect x="40" y="28" width="1" height="1" fill="#37423F" />
<rect x="23" y="29" width="1" height="1" fill="#AC3232" />
<rect x="24" y="29" width="1" height="1" fill="#AC3232" />
<rect x="25" y="29" width="1" height="1" fill="#AC3232" />
<rect x="26" y="29" width="1" height="1" fill="#3C3C6E" />
<rect x="27" y="29" width="1" height="1" fill="#D7B18B" />
<rect x="28" y="29" width="1" height="1" fill="#D7B18B" />
<rect x="29" y="29" width="1" height="1" fill="#3C3C6E" />
<rect x="30" y="29" width="1" height="1" fill="#3C3C6E" />
<rect x="31" y="29" width="1" height="1" fill="#3C3C6E" />
<rect x="32" y="29" width="1" height="1" fill="#3C3C6E" />
<rect x="33" y="29" width="1" height="1" fill="#3C3C6E" />
<rect x="34" y="29" width="1" height="1" fill="#3C3C6E" />
<rect x="35" y="29" width="1" height="1" fill="#D7B18B" />
<rect x="36" y="29" width="1" height="1" fill="#D7B18B" />
<rect x="37" y="29" width="1" height="1" fill="#3C3C6E" />
<rect x="38" y="29" width="1" height="1" fill="#AC3232" />
<rect x="39" y="29" width="1" height="1" fill="#AC3232" />
<rect x="40" y="29" width="1" height="1" fill="#AC3232" />
<rect x="23" y="30" width="1" height="1" fill="#AC3232" />
<rect x="24" y="30" width="1" height="1" fill="#AC3232" />
<rect x="25" y="30" width="1" height="1" fill="#262C2A" />
<rect x="27" y="30" width="1" height="1" fill="#3C3C6E" />
<rect x="28" y="30" width="1" height="1" fill="#3C3C6E" />
<rect x="29" y="30" width="1" height="1" fill="#3F3F74" />
<rect x="30" y="30" width="1" height="1" fill="#AC3232" />
<rect x="31" y="30" width="1" height="1" fill="#AC3232" />
<rect x="32" y="30" width="1" height="1" fill="#AC3232" />
<rect x="33" y="30" width="1" height="1" fill="#AC3232" />
<rect x="34" y="30" width="1" height="1" fill="#3F3F74" />
<rect x="35" y="30" width="1" height="1" fill="#3C3C6E" />
<rect x="36" y="30" width="1" height="1" fill="#3C3C6E" />
<rect x="38" y="30" width="1" height="1" fill="#262C2A" />
<rect x="39" y="30" width="1" height="1" fill="#AC3232" />
<rect x="40" y="30" width="1" height="1" fill="#AC3232" />
<rect x="23" y="31" width="1" height="1" fill="#AC3232" />
<rect x="24" y="31" width="1" height="1" fill="#323C39" />
<rect x="25" y="31" width="1" height="1" fill="#AC3232" />
<rect x="27" y="31" width="1" height="1" fill="#3F3F74" />
<rect x="28" y="31" width="1" height="1" fill="#3F3F74" />
<rect x="29" y="31" width="1" height="1" fill="#3F3F74" />
<rect x="30" y="31" width="1" height="1" fill="#AC3232" />
<rect x="31" y="31" width="1" height="1" fill="#AC3232" />
<rect x="32" y="31" width="1" height="1" fill="#AC3232" />
<rect x="33" y="31" width="1" height="1" fill="#AC3232" />
<rect x="34" y="31" width="1" height="1" fill="#3F3F74" />
<rect x="35" y="31" width="1" height="1" fill="#3F3F74" />
<rect x="36" y="31" width="1" height="1" fill="#3F3F74" />
<rect x="38" y="31" width="1" height="1" fill="#AC3232" />
<rect x="39" y="31" width="1" height="1" fill="#323C39" />
<rect x="40" y="31" width="1" height="1" fill="#AC3232" />
<rect x="23" y="32" width="1" height="1" fill="#AC3232" />
<rect x="24" y="32" width="1" height="1" fill="#37423F" />
<rect x="25" y="32" width="1" height="1" fill="#AC3232" />
<rect x="27" y="32" width="1" height="1" fill="#3F3F74" />
<rect x="28" y="32" width="1" height="1" fill="#3F3F74" />
<rect x="29" y="32" width="1" height="1" fill="#3F3F74" />
<rect x="30" y="32" width="1" height="1" fill="#AC3232" />
<rect x="31" y="32" width="1" height="1" fill="#AC3232" />
<rect x="32" y="32" width="1" height="1" fill="#AC3232" />
<rect x="33" y="32" width="1" height="1" fill="#AC3232" />
<rect x="34" y="32" width="1" height="1" fill="#3F3F74" />
<rect x="35" y="32" width="1" height="1" fill="#3F3F74" />
<rect x="36" y="32" width="1" height="1" fill="#3F3F74" />
<rect x="38" y="32" width="1" height="1" fill="#AC3232" />
<rect x="39" y="32" width="1" height="1" fill="#37423F" />
<rect x="40" y="32" width="1" height="1" fill="#AC3232" />
<rect x="23" y="33" width="1" height="1" fill="#37423F" />
<rect x="24" y="33" width="1" height="1" fill="#AC3232" />
<rect x="25" y="33" width="1" height="1" fill="#AC3232" />
<rect x="27" y="33" width="1" height="1" fill="#3F3F74" />
<rect x="28" y="33" width="1" height="1" fill="#3F3F74" />
<rect x="29" y="33" width="1" height="1" fill="#3F3F74" />
<rect x="30" y="33" width="1" height="1" fill="#AC3232" />
<rect x="31" y="33" width="1" height="1" fill="#AC3232" />
<rect x="32" y="33" width="1" height="1" fill="#AC3232" />
<rect x="33" y="33" width="1" height="1" fill="#AC3232" />
<rect x="34" y="33" width="1" height="1" fill="#3F3F74" />
<rect x="35" y="33" width="1" height="1" fill="#3F3F74" />
<rect x="36" y="33" width="1" height="1" fill="#3F3F74" />
<rect x="38" y="33" width="1" height="1" fill="#AC3232" />
<rect x="39" y="33" width="1" height="1" fill="#AC3232" />
<rect x="40" y="33" width="1" height="1" fill="#37423F" />
<rect x="23" y="34" width="1" height="1" fill="#AC3232" />
<rect x="24" y="34" width="1" height="1" fill="#AC3232" />
<rect x="25" y="34" width="1" height="1" fill="#AC3232" />
<rect x="27" y="34" width="1" height="1" fill="#3F3F74" />
<rect x="28" y="34" width="1" height="1" fill="#3F3F74" />
<rect x="29" y="34" width="1" height="1" fill="#3F3F74" />
<rect x="30" y="34" width="1" height="1" fill="#3F3F74" />
<rect x="31" y="34" width="1" height="1" fill="#3F3F74" />
<rect x="32" y="34" width="1" height="1" fill="#3F3F74" />
<rect x="33" y="34" width="1" height="1" fill="#3F3F74" />
<rect x="34" y="34" width="1" height="1" fill="#3F3F74" />
<rect x="35" y="34" width="1" height="1" fill="#3F3F74" />
<rect x="36" y="34" width="1" height="1" fill="#3F3F74" />
<rect x="38" y="34" width="1" height="1" fill="#AC3232" />
<rect x="39" y="34" width="1" height="1" fill="#AC3232" />
<rect x="40" y="34" width="1" height="1" fill="#AC3232" />
<rect x="23" y="35" width="1" height="1" fill="#AC3232" />
<rect x="24" y="35" width="1" height="1" fill="#AC3232" />
<rect x="25" y="35" width="1" height="1" fill="#262C2A" />
<rect x="27" y="35" width="1" height="1" fill="#3F3F74" />
<rect x="28" y="35" width="1" height="1" fill="#3F3F74" />
<rect x="29" y="35" width="1" height="1" fill="#3F3F74" />
<rect x="30" y="35" width="1" height="1" fill="#3F3F74" />
<rect x="31" y="35" width="1" height="1" fill="#3F3F74" />
<rect x="32" y="35" width="1" height="1" fill="#3F3F74" />
<rect x="33" y="35" width="1" height="1" fill="#3F3F74" />
<rect x="34" y="35" width="1" height="1" fill="#3F3F74" />
<rect x="35" y="35" width="1" height="1" fill="#3F3F74" />
<rect x="36" y="35" width="1" height="1" fill="#3F3F74" />
<rect x="38" y="35" width="1" height="1" fill="#262C2A" />
<rect x="39" y="35" width="1" height="1" fill="#AC3232" />
<rect x="40" y="35" width="1" height="1" fill="#AC3232" />
<rect x="23" y="36" width="1" height="1" fill="#A33030" />
<rect x="24" y="36" width="1" height="1" fill="#37423F" />
<rect x="25" y="36" width="1" height="1" fill="#A33030" />
<rect x="27" y="36" width="1" height="1" fill="#3F3F74" />
<rect x="28" y="36" width="1" height="1" fill="#3F3F74" />
<rect x="29" y="36" width="1" height="1" fill="#3F3F74" />
<rect x="30" y="36" width="1" height="1" fill="#3F3F74" />
<rect x="31" y="36" width="1" height="1" fill="#3F3F74" />
<rect x="32" y="36" width="1" height="1" fill="#3F3F74" />
<rect x="33" y="36" width="1" height="1" fill="#3F3F74" />
<rect x="34" y="36" width="1" height="1" fill="#3F3F74" />
<rect x="35" y="36" width="1" height="1" fill="#3F3F74" />
<rect x="36" y="36" width="1" height="1" fill="#3F3F74" />
<rect x="38" y="36" width="1" height="1" fill="#A33030" />
<rect x="39" y="36" width="1" height="1" fill="#37423F" />
<rect x="40" y="36" width="1" height="1" fill="#A33030" />
<rect x="22" y="37" width="1" height="1" fill="#FBF236" />
<rect x="23" y="37" width="1" height="1" fill="#D9A066" />
<rect x="24" y="37" width="1" height="1" fill="#D9A066" />
<rect x="25" y="37" width="1" height="1" fill="#D9A066" />
<rect x="26" y="37" width="1" height="1" fill="#FBF236" />
<rect x="27" y="37" width="1" height="1" fill="#3F3F74" />
<rect x="28" y="37" width="1" height="1" fill="#3F3F74" />
<rect x="29" y="37" width="1" height="1" fill="#3F3F74" />
<rect x="30" y="37" width="1" height="1" fill="#3F3F74" />
<rect x="31" y="37" width="1" height="1" fill="#3F3F74" />
<rect x="32" y="37" width="1" height="1" fill="#3F3F74" />
<rect x="33" y="37" width="1" height="1" fill="#3F3F74" />
<rect x="34" y="37" width="1" height="1" fill="#3F3F74" />
<rect x="35" y="37" width="1" height="1" fill="#3F3F74" />
<rect x="36" y="37" width="1" height="1" fill="#3F3F74" />
<rect x="37" y="37" width="1" height="1" fill="#FBF236" />
<rect x="38" y="37" width="1" height="1" fill="#D9A066" />
<rect x="39" y="37" width="1" height="1" fill="#D9A066" />
<rect x="40" y="37" width="1" height="1" fill="#D9A066" />
<rect x="41" y="37" width="1" height="1" fill="#FBF236" />
<rect x="22" y="38" width="1" height="1" fill="#FBF236" />
<rect x="23" y="38" width="1" height="1" fill="#D9A066" />
<rect x="24" y="38" width="1" height="1" fill="#D9A066" />
<rect x="25" y="38" width="1" height="1" fill="#D9A066" />
<rect x="27" y="38" width="1" height="1" fill="#3F3F74" />
<rect x="28" y="38" width="1" height="1" fill="#3F3F74" />
<rect x="29" y="38" width="1" height="1" fill="#3F3F74" />
<rect x="30" y="38" width="1" height="1" fill="#3F3F74" />
<rect x="31" y="38" width="1" height="1" fill="#3F3F74" />
<rect x="32" y="38" width="1" height="1" fill="#3F3F74" />
<rect x="33" y="38" width="1" height="1" fill="#3F3F74" />
<rect x="34" y="38" width="1" height="1" fill="#3F3F74" />
<rect x="35" y="38" width="1" height="1" fill="#3F3F74" />
<rect x="36" y="38" width="1" height="1" fill="#3F3F74" />
<rect x="38" y="38" width="1" height="1" fill="#D9A066" />
<rect x="39" y="38" width="1" height="1" fill="#D9A066" />
<rect x="40" y="38" width="1" height="1" fill="#D9A066" />
<rect x="42" y="38" width="1" height="1" fill="#FBF236" />
<rect x="21" y="39" width="1" height="1" fill="#FBF236" />
<rect x="23" y="39" width="1" height="1" fill="#D9A066" />
<rect x="24" y="39" width="1" height="1" fill="#D9A066" />
<rect x="25" y="39" width="1" height="1" fill="#D9A066" />
<rect x="26" y="39" width="1" height="1" fill="#D9A066" />
<rect x="27" y="39" width="1" height="1" fill="#3F3F74" />
<rect x="28" y="39" width="1" height="1" fill="#3F3F74" />
<rect x="29" y="39" width="1" height="1" fill="#3F3F74" />
<rect x="30" y="39" width="1" height="1" fill="#3F3F74" />
<rect x="31" y="39" width="1" height="1" fill="#3F3F74" />
<rect x="32" y="39" width="1" height="1" fill="#3F3F74" />
<rect x="33" y="39" width="1" height="1" fill="#3F3F74" />
<rect x="34" y="39" width="1" height="1" fill="#3F3F74" />
<rect x="35" y="39" width="1" height="1" fill="#3F3F74" />
<rect x="36" y="39" width="1" height="1" fill="#3F3F74" />
<rect x="37" y="39" width="1" height="1" fill="#D9A066" />
<rect x="38" y="39" width="1" height="1" fill="#D9A066" />
<rect x="39" y="39" width="1" height="1" fill="#D9A066" />
<rect x="40" y="39" width="1" height="1" fill="#D9A066" />
<rect x="23" y="40" width="1" height="1" fill="#D9A066" />
<rect x="24" y="40" width="1" height="1" fill="#D9A066" />
<rect x="25" y="40" width="1" height="1" fill="#D9A066" />
<rect x="26" y="40" width="1" height="1" fill="#CF975E" />
<rect x="27" y="40" width="1" height="1" fill="#3F3F74" />
<rect x="28" y="40" width="1" height="1" fill="#3F3F74" />
<rect x="29" y="40" width="1" height="1" fill="#3F3F74" />
<rect x="30" y="40" width="1" height="1" fill="#3F3F74" />
<rect x="31" y="40" width="1" height="1" fill="#3F3F74" />
<rect x="32" y="40" width="1" height="1" fill="#3F3F74" />
<rect x="33" y="40" width="1" height="1" fill="#3F3F74" />
<rect x="34" y="40" width="1" height="1" fill="#3F3F74" />
<rect x="35" y="40" width="1" height="1" fill="#3F3F74" />
<rect x="36" y="40" width="1" height="1" fill="#3F3F74" />
<rect x="37" y="40" width="1" height="1" fill="#CF975E" />
<rect x="38" y="40" width="1" height="1" fill="#D9A066" />
<rect x="39" y="40" width="1" height="1" fill="#D9A066" />
<rect x="40" y="40" width="1" height="1" fill="#D9A066" />
<rect x="23" y="41" width="1" height="1" fill="#D9A066" />
<rect x="24" y="41" width="1" height="1" fill="#D9A066" />
<rect x="25" y="41" width="1" height="1" fill="#CF975E" />
<rect x="27" y="41" width="1" height="1" fill="#3F3F74" />
<rect x="28" y="41" width="1" height="1" fill="#3F3F74" />
<rect x="29" y="41" width="1" height="1" fill="#3F3F74" />
<rect x="30" y="41" width="1" height="1" fill="#3F3F74" />
<rect x="33" y="41" width="1" height="1" fill="#3F3F74" />
<rect x="34" y="41" width="1" height="1" fill="#3F3F74" />
<rect x="35" y="41" width="1" height="1" fill="#3F3F74" />
<rect x="36" y="41" width="1" height="1" fill="#3F3F74" />
<rect x="38" y="41" width="1" height="1" fill="#CF975E" />
<rect x="39" y="41" width="1" height="1" fill="#D9A066" />
<rect x="40" y="41" width="1" height="1" fill="#D9A066" />
<rect x="23" y="42" width="1" height="1" fill="#CF975E" />
<rect x="24" y="42" width="1" height="1" fill="#CF975E" />
<rect x="25" y="42" width="1" height="1" fill="#CF975E" />
<rect x="27" y="42" width="1" height="1" fill="#3F3F74" />
<rect x="28" y="42" width="1" height="1" fill="#3F3F74" />
<rect x="29" y="42" width="1" height="1" fill="#AC3232" />
<rect x="30" y="42" width="1" height="1" fill="#3F3F74" />
<rect x="33" y="42" width="1" height="1" fill="#3F3F74" />
<rect x="34" y="42" width="1" height="1" fill="#AC3232" />
<rect x="35" y="42" width="1" height="1" fill="#3F3F74" />
<rect x="36" y="42" width="1" height="1" fill="#3F3F74" />
<rect x="38" y="42" width="1" height="1" fill="#CF975E" />
<rect x="39" y="42" width="1" height="1" fill="#CF975E" />
<rect x="40" y="42" width="1" height="1" fill="#CF975E" />
<rect x="27" y="43" width="1" height="1" fill="#3F3F74" />
<rect x="28" y="43" width="1" height="1" fill="#AC3232" />
<rect x="29" y="43" width="1" height="1" fill="#AC3232" />
<rect x="30" y="43" width="1" height="1" fill="#3F3F74" />
<rect x="33" y="43" width="1" height="1" fill="#3F3F74" />
<rect x="34" y="43" width="1" height="1" fill="#AC3232" />
<rect x="35" y="43" width="1" height="1" fill="#AC3232" />
<rect x="36" y="43" width="1" height="1" fill="#3F3F74" />
<rect x="27" y="44" width="1" height="1" fill="#3F3F74" />
<rect x="28" y="44" width="1" height="1" fill="#3F3F74" />
<rect x="29" y="44" width="1" height="1" fill="#AC3232" />
<rect x="30" y="44" width="1" height="1" fill="#3F3F74" />
<rect x="33" y="44" width="1" height="1" fill="#3F3F74" />
<rect x="34" y="44" width="1" height="1" fill="#AC3232" />
<rect x="35" y="44" width="1" height="1" fill="#3F3F74" />
<rect x="36" y="44" width="1" height="1" fill="#3F3F74" />
<rect x="27" y="45" width="1" height="1" fill="#3F3F74" />
<rect x="28" y="45" width="1" height="1" fill="#3F3F74" />
<rect x="29" y="45" width="1" height="1" fill="#3F3F74" />
<rect x="30" y="45" width="1" height="1" fill="#3F3F74" />
<rect x="33" y="45" width="1" height="1" fill="#3F3F74" />
<rect x="34" y="45" width="1" height="1" fill="#3F3F74" />
<rect x="35" y="45" width="1" height="1" fill="#3F3F74" />
<rect x="36" y="45" width="1" height="1" fill="#3F3F74" />
<rect x="27" y="46" width="1" height="1" fill="#3F3F74" />
<rect x="28" y="46" width="1" height="1" fill="#3F3F74" />
<rect x="29" y="46" width="1" height="1" fill="#3F3F74" />
<rect x="30" y="46" width="1" height="1" fill="#3F3F74" />
<rect x="33" y="46" width="1" height="1" fill="#3F3F74" />
<rect x="34" y="46" width="1" height="1" fill="#3F3F74" />
<rect x="35" y="46" width="1" height="1" fill="#3F3F74" />
<rect x="36" y="46" width="1" height="1" fill="#3F3F74" />
<rect x="27" y="47" width="1" height="1" fill="#3F3F74" />
<rect x="28" y="47" width="1" height="1" fill="#464677" />
<rect x="29" y="47" width="1" height="1" fill="#464677" />
<rect x="30" y="47" width="1" height="1" fill="#464677" />
<rect x="33" y="47" width="1" height="1" fill="#464677" />
<rect x="34" y="47" width="1" height="1" fill="#464677" />
<rect x="35" y="47" width="1" height="1" fill="#464677" />
<rect x="36" y="47" width="1" height="1" fill="#3F3F74" />
<rect x="27" y="48" width="1" height="1" fill="#464677" />
<rect x="28" y="48" width="1" height="1" fill="#464677" />
<rect x="29" y="48" width="1" height="1" fill="#363661" />
<rect x="30" y="48" width="1" height="1" fill="#363661" />
<rect x="33" y="48" width="1" height="1" fill="#363661" />
<rect x="34" y="48" width="1" height="1" fill="#363661" />
<rect x="35" y="48" width="1" height="1" fill="#464677" />
<rect x="36" y="48" width="1" height="1" fill="#464677" />
<rect x="27" y="49" width="1" height="1" fill="#363661" />
<rect x="28" y="49" width="1" height="1" fill="#363661" />
<rect x="29" y="49" width="1" height="1" fill="#363661" />
<rect x="30" y="49" width="1" height="1" fill="#363661" />
<rect x="33" y="49" width="1" height="1" fill="#363661" />
<rect x="34" y="49" width="1" height="1" fill="#363661" />
<rect x="35" y="49" width="1" height="1" fill="#363661" />
<rect x="36" y="49" width="1" height="1" fill="#363661" />
<rect x="27" y="50" width="1" height="1" fill="#363661" />
<rect x="28" y="50" width="1" height="1" fill="#363661" />
<rect x="29" y="50" width="1" height="1" fill="#363661" />
<rect x="30" y="50" width="1" height="1" fill="#363661" />
<rect x="33" y="50" width="1" height="1" fill="#363661" />
<rect x="34" y="50" width="1" height="1" fill="#363661" />
<rect x="35" y="50" width="1" height="1" fill="#363661" />
<rect x="36" y="50" width="1" height="1" fill="#363661" />
<rect x="26" y="51" width="1" height="1" fill="#5C342D" />
<rect x="27" y="51" width="1" height="1" fill="#5C342D" />
<rect x="28" y="51" width="1" height="1" fill="#5C342D" />
<rect x="29" y="51" width="1" height="1" fill="#5C342D" />
<rect x="30" y="51" width="1" height="1" fill="#5C342D" />
<rect x="33" y="51" width="1" height="1" fill="#5C342D" />
<rect x="34" y="51" width="1" height="1" fill="#5C342D" />
<rect x="35" y="51" width="1" height="1" fill="#5C342D" />
<rect x="36" y="51" width="1" height="1" fill="#5C342D" />
<rect x="37" y="51" width="1" height="1" fill="#5C342D" />
<rect x="27" y="52" width="1" height="1" fill="#8F563B" />
<rect x="28" y="52" width="1" height="1" fill="#8F563B" />
<rect x="29" y="52" width="1" height="1" fill="#8F563B" />
<rect x="30" y="52" width="1" height="1" fill="#8F563B" />
<rect x="33" y="52" width="1" height="1" fill="#8F563B" />
<rect x="34" y="52" width="1" height="1" fill="#8F563B" />
<rect x="35" y="52" width="1" height="1" fill="#8F563B" />
<rect x="36" y="52" width="1" height="1" fill="#8F563B" />
<rect x="27" y="53" width="1" height="1" fill="#A76445" />
<rect x="28" y="53" width="1" height="1" fill="#8F563B" />
<rect x="29" y="53" width="1" height="1" fill="#8F563B" />
<rect x="30" y="53" width="1" height="1" fill="#8F563B" />
<rect x="33" y="53" width="1" height="1" fill="#8F563B" />
<rect x="34" y="53" width="1" height="1" fill="#8F563B" />
<rect x="35" y="53" width="1" height="1" fill="#8F563B" />
<rect x="36" y="53" width="1" height="1" fill="#A76445" />
<rect x="25" y="54" width="1" height="1" fill="#A76445" />
<rect x="26" y="54" width="1" height="1" fill="#A76445" />
<rect x="27" y="54" width="1" height="1" fill="#8F563B" />
<rect x="28" y="54" width="1" height="1" fill="#8F563B" />
<rect x="29" y="54" width="1" height="1" fill="#8F563B" />
<rect x="30" y="54" width="1" height="1" fill="#8F563B" />
<rect x="33" y="54" width="1" height="1" fill="#8F563B" />
<rect x="34" y="54" width="1" height="1" fill="#8F563B" />
<rect x="35" y="54" width="1" height="1" fill="#8F563B" />
<rect x="36" y="54" width="1" height="1" fill="#8F563B" />
<rect x="37" y="54" width="1" height="1" fill="#A76445" />
<rect x="38" y="54" width="1" height="1" fill="#A76445" />
<rect x="23" y="55" width="1" height="1" fill="#A76445" />
<rect x="24" y="55" width="1" height="1" fill="#A76445" />
<rect x="25" y="55" width="1" height="1" fill="#8F563B" />
<rect x="26" y="55" width="1" height="1" fill="#8F563B" />
<rect x="27" y="55" width="1" height="1" fill="#8F563B" />
<rect x="28" y="55" width="1" height="1" fill="#8F563B" />
<rect x="29" y="55" width="1" height="1" fill="#8F563B" />
<rect x="30" y="55" width="1" height="1" fill="#844F36" />
<rect x="33" y="55" width="1" height="1" fill="#844F36" />
<rect x="34" y="55" width="1" height="1" fill="#8F563B" />
<rect x="35" y="55" width="1" height="1" fill="#8F563B" />
<rect x="36" y="55" width="1" height="1" fill="#8F563B" />
<rect x="37" y="55" width="1" height="1" fill="#8F563B" />
<rect x="38" y="55" width="1" height="1" fill="#8F563B" />
<rect x="39" y="55" width="1" height="1" fill="#A76445" />
<rect x="40" y="55" width="1" height="1" fill="#A76445" />
<rect x="23" y="56" width="1" height="1" fill="#8F563B" />
<rect x="24" y="56" width="1" height="1" fill="#8F563B" />
<rect x="25" y="56" width="1" height="1" fill="#8F563B" />
<rect x="26" y="56" width="1" height="1" fill="#8F563B" />
<rect x="27" y="56" width="1" height="1" fill="#8F563B" />
<rect x="28" y="56" width="1" height="1" fill="#8F563B" />
<rect x="29" y="56" width="1" height="1" fill="#844F36" />
<rect x="30" y="56" width="1" height="1" fill="#844F36" />
<rect x="33" y="56" width="1" height="1" fill="#844F36" />
<rect x="34" y="56" width="1" height="1" fill="#844F36" />
<rect x="35" y="56" width="1" height="1" fill="#8F563B" />
<rect x="36" y="56" width="1" height="1" fill="#8F563B" />
<rect x="37" y="56" width="1" height="1" fill="#8F563B" />
<rect x="38" y="56" width="1" height="1" fill="#8F563B" />
<rect x="39" y="56" width="1" height="1" fill="#8F563B" />
<rect x="40" y="56" width="1" height="1" fill="#8F563B" />
<rect x="23" y="57" width="1" height="1" fill="#4B2A24" />
<rect x="24" y="57" width="1" height="1" fill="#4B2A24" />
<rect x="25" y="57" width="1" height="1" fill="#4B2A24" />
<rect x="26" y="57" width="1" height="1" fill="#4B2A24" />
<rect x="27" y="57" width="1" height="1" fill="#4B2A24" />
<rect x="28" y="57" width="1" height="1" fill="#4B2A24" />
<rect x="29" y="57" width="1" height="1" fill="#4B2A24" />
<rect x="30" y="57" width="1" height="1" fill="#4B2A24" />
<rect x="33" y="57" width="1" height="1" fill="#4B2A24" />
<rect x="34" y="57" width="1" height="1" fill="#4B2A24" />
<rect x="35" y="57" width="1" height="1" fill="#4B2A24" />
<rect x="36" y="57" width="1" height="1" fill="#4B2A24" />
<rect x="37" y="57" width="1" height="1" fill="#4B2A24" />
<rect x="38" y="57" width="1" height="1" fill="#4B2A24" />
<rect x="39" y="57" width="1" height="1" fill="#4B2A24" />
<rect x="40" y="57" width="1" height="1" fill="#4B2A24" />
</svg>